# xmcd
# 
# Track frame offsets:
#     150
#     11598
#     21513
#     31498
#     43785
#     55780
#     66788
#     79288
#     92635
#     105338
#     116473
#     125858
#     136413
#     147595
#     159255
#     170510
#     181488
#     192010
#     203248
#     214435
#     225883
#     239390
#     249728
#     258985
#     269855
# 
# Disc length: 3726
# 
# Revision: 2
# Processed by: cddbd v1.5.2PL0 Copyright (c) Steve Scherf et al.
# Submitted via: fre:ac v1.0.31
# 
DISCID=700e8c19
DTITLE=Columbia Blues - Lloyd Price Lawdy!
DYEAR=0
DGENRE=Blues
TTITLE0=Lawdy Miss Clawdy
TTITLE1=Mailman Blues
TTITLE2=Chee Koo Baby
TTITLE3=OO-EE Baby
TTITLE4=So Long
TTITLE5=Operator
TTITLE6=Laurelle
TTITLE7=What's the Matter Now?
TTITLE8=If Crying was Murder
TTITLE9=Walkin' the Track
TTITLE10=Where You At?
TTITLE11=Lord, Lord, Amen!
TTITLE12=Carry Me Home
TTITLE13=Froglegs
TTITLE14=Froglegs #2
TTITLE15=I Wish Your Picture was You
TTITLE16=Let Me Come Home, Baby
TTITLE17=Tryin' to Find Someone to Love
TTITLE18=Night and Day Blues
TTITLE19=All Alone
TTITLE20=What a Fire
TTITLE21=Rock 'N' Roll Dance
TTITLE22=I'm Glad, Glad
TTITLE23=Baby Please Come Home
TTITLE24=Forgive Me, Clawdy
EXTD=
EXTT0=
EXTT1=
EXTT2=
EXTT3=
EXTT4=
EXTT5=
EXTT6=
EXTT7=
EXTT8=
EXTT9=
EXTT10=
EXTT11=
EXTT12=
EXTT13=
EXTT14=
EXTT15=
EXTT16=
EXTT17=
EXTT18=
EXTT19=
EXTT20=
EXTT21=
EXTT22=
EXTT23=
EXTT24=
PLAYORDER=
